<svg width="0" height="0" class="icon">
  <symbol  xmlns="http://www.w3.org/2000/svg" viewBox="0 0 22 22" id="comment">
        <path d="M14.25 11a1.125 1.125 0 102.25 0 1.125 1.125 0 00-2.25 0zm4.688 0a1.125 1.125 0 102.25 0 1.125 1.125 0 00-2.25 0zm-9.375 0a1.125 1.125 0 102.25 0 1.125 1.125 0 00-2.25 0zM25.06 6.931A10.503 10.503 0 0015.375.5h-.047A10.475 10.475 0 007.91 3.603 10.405 10.405 0 005.68 6.95a10.504 10.504 0 00-.805 4.1A10.533 10.533 0 006 15.733v3.563a1.078 1.078 0 001.078 1.078h3.565a10.533 10.533 0 004.685 1.125h.05c1.403 0 2.765-.272 4.047-.804a10.417 10.417 0 003.347-2.231 10.475 10.475 0 003.103-7.418 10.46 10.46 0 00-.815-4.116zm-3.542 10.266a8.673 8.673 0 01-6.143 2.522h-.04a8.75 8.75 0 01-4.057-1.02l-.197-.105h-3.3v-3.3l-.105-.197a8.75 8.75 0 01-1.02-4.057 8.665 8.665 0 012.522-6.183 8.653 8.653 0 016.16-2.576h.04c1.171 0 2.308.228 3.38.678a8.664 8.664 0 012.788 1.875 8.683 8.683 0 012.552 6.206 8.685 8.685 0 01-2.58 6.157z" ></path>
     </symbol>
  <symbol  xmlns="http://www.w3.org/2000/svg" viewBox="0 0 19 20" id="like">
   
      <path d="M22.138 10.51c.394-.52.612-1.158.612-1.822 0-1.052-.588-2.048-1.535-2.604a1.586 1.586 0 00-.804-.218h-5.62l.14-2.88a2.509 2.509 0 00-.691-1.861 2.499 2.499 0 00-1.826-.783c-1.219 0-2.297.82-2.62 1.995L7.78 9.626H4.75a.75.75 0 00-.75.75v8.531c0 .415.335.75.75.75h14.093c.216 0 .427-.042.621-.127a3.014 3.014 0 001.709-3.642 3.016 3.016 0 00.485-2.688c.394-.52.611-1.158.611-1.821a3.2 3.2 0 00-.13-.87zm-16.45 7.46v-6.657h1.898v6.657H5.687zm14.915-8.274l-.513.445.326.596a1.338 1.338 0 01-.298 1.648l-.513.445.325.595a1.338 1.338 0 01-.298 1.648l-.512.445.325.595a1.332 1.332 0 01-.626 1.854H9.087v-6.729l2.332-8.449a1.033 1.033 0 01.989-.757.833.833 0 01.837.872l-.225 4.65h7.368c.418.255.675.687.675 1.134 0 .387-.168.753-.459 1.008z" ></path>
   
    
  </symbol>
  <symbol  xmlns="http://www.w3.org/2000/svg" viewBox="0 0 20 20" id="save">
   
      <path d="M22.312 4.874L18.5 1.064a1.494 1.494 0 00-.626-.376V.625H4.75a.75.75 0 00-.75.75v17.25c0 .415.335.75.75.75H22a.75.75 0 00.75-.75V5.934c0-.399-.157-.779-.438-1.06zM10.375 2.313h6V4.75h-6V2.312zm10.688 15.374H5.688V2.313h3.187V5.5c0 .415.335.75.75.75h7.5a.75.75 0 00.75-.75V2.823l3.188 3.188v11.677zM13.375 8.36a3.376 3.376 0 10.002 6.752 3.376 3.376 0 00-.002-6.752zm0 5.25a1.875 1.875 0 110-3.749 1.875 1.875 0 010 3.75z" ></path>
   
    
  </symbol>


  <symbol  xmlns="http://www.w3.org/2000/svg" viewBox="0 0 18 20" id="share">
    
      <path d="M19 13.563a2.8 2.8 0 00-1.767.625l-4.856-3.513a3.767 3.767 0 000-1.35l4.856-3.513A2.8 2.8 0 0019 6.437a2.815 2.815 0 002.813-2.812A2.815 2.815 0 0019 .812a2.815 2.815 0 00-2.702 3.593l-4.613 3.34A3.749 3.749 0 004.937 10a3.749 3.749 0 006.748 2.255l4.613 3.34A2.815 2.815 0 0019 19.188a2.815 2.815 0 002.813-2.813A2.815 2.815 0 0019 13.562zm0-11.157a1.22 1.22 0 11-.001 2.439A1.22 1.22 0 0119 2.406zM8.687 12.062A2.066 2.066 0 016.626 10c0-1.137.926-2.063 2.063-2.063 1.136 0 2.062.926 2.062 2.063a2.066 2.066 0 01-2.063 2.063zM19 17.595a1.22 1.22 0 11.001-2.439A1.22 1.22 0 0119 17.594z" ></path>

    
  </symbol>
</svg>